<?xml version="1.0" encoding="UTF-8" standalone="no"?>
<!-- Generator: Adobe Illustrator 13.0.2, SVG Export Plug-In . SVG Version: 6.00 Build 14948)  -->
<svg xmlns:dc="http://purl.org/dc/elements/1.1/" xmlns:cc="http://creativecommons.org/ns#" xmlns:rdf="http://www.w3.org/1999/02/22-rdf-syntax-ns#" xmlns:svg="http://www.w3.org/2000/svg" xmlns="http://www.w3.org/2000/svg" xmlns:xlink="http://www.w3.org/1999/xlink" xmlns:sodipodi="http://sodipodi.sourceforge.net/DTD/sodipodi-0.dtd" xmlns:inkscape="http://www.inkscape.org/namespaces/inkscape" version="1.0" id="Layer_1" x="0px" y="0px" width="441.41049" height="437.59375" viewBox="0 0 430 432" enable-background="new 0 0 430 432" xml:space="preserve" sodipodi:version="0.32" inkscape:version="0.46" sodipodi:docname="Euro sign.svg" inkscape:output_extension="org.inkscape.output.svg.inkscape"><metadata id="metadata126"><rdf:RDF><cc:Work rdf:about=""><dc:format>image/svg+xml</dc:format><dc:type rdf:resource="http://purl.org/dc/dcmitype/StillImage"/></cc:Work></rdf:RDF></metadata><defs id="defs124"><linearGradient id="linearGradient2970"><stop id="stop2972" offset="0" style="stop-color:#924f20;stop-opacity:1;"/><stop style="stop-color:#c7ac44;stop-opacity:1;" offset="0.11599973" id="stop3770"/><stop style="stop-color:#d4c24d;stop-opacity:1;" offset="0.21599954" id="stop2978"/><stop id="stop3766" offset="0.30399936" style="stop-color:#cfba4a;stop-opacity:1;"/><stop id="stop2980" offset="0.43199915" style="stop-color:#b79640;stop-opacity:1;"/><stop style="stop-color:#bfa046;stop-opacity:1;" offset="0.48399901" id="stop3768"/><stop style="stop-color:#f3dd6d;stop-opacity:1;" offset="0.59999877" id="stop3756"/><stop style="stop-color:#fce774;stop-opacity:1;" offset="0.65999871" id="stop2982"/><stop id="stop3758" offset="0.7199986" style="stop-color:#efd868;stop-opacity:1;"/><stop style="stop-color:#cbae47;stop-opacity:1;" offset="0.79199839" id="stop3762"/><stop id="stop2984" offset="0.89999825" style="stop-color:#9c781c;stop-opacity:1;"/><stop style="stop-color:#976b1c;stop-opacity:1;" offset="0.92399818" id="stop3760"/><stop id="stop2974" offset="1" style="stop-color:#8b491c;stop-opacity:1;"/></linearGradient><linearGradient id="linearGradient2763"><stop id="stop2765" offset="0" style="stop-color:#fffded;stop-opacity:1;"/><stop style="stop-color:#fff9b6;stop-opacity:1;" offset="0.04119987" id="stop2767"/><stop style="stop-color:#fff67f;stop-opacity:1;" offset="0.08204883" id="stop2769"/><stop id="stop2771" offset="1" style="stop-color:#c19439;stop-opacity:1;"/></linearGradient><linearGradient id="linearGradient2751"><stop id="stop2753" offset="0" style="stop-color:#fffded;stop-opacity:1;"/><stop style="stop-color:#fff9b6;stop-opacity:1;" offset="0.08204883" id="stop2755"/><stop style="stop-color:#fff67f;stop-opacity:1;" offset="0.08204883" id="stop2757"/><stop id="stop2759" offset="1" style="stop-color:#c19439;stop-opacity:1;"/></linearGradient><linearGradient id="linearGradient3267"><stop id="stop3269" offset="0" style="stop-color:#fffded;stop-opacity:1;"/><stop style="stop-color:#fff9b6;stop-opacity:1;" offset="0.38204542" id="stop3285"/><stop style="stop-color:#fff67f;stop-opacity:1;" offset="0.62908947" id="stop3283"/><stop id="stop3271" offset="1" style="stop-color:#c19439;stop-opacity:1;"/></linearGradient><linearGradient id="linearGradient3302"><stop style="stop-color:#fffded;stop-opacity:1;" offset="0" id="stop3304"/><stop id="stop3306" offset="0.03829331" style="stop-color:#fff9b6;stop-opacity:1;"/><stop id="stop3308" offset="0.08204883" style="stop-color:#fff67f;stop-opacity:1;"/><stop style="stop-color:#c19439;stop-opacity:1;" offset="1" id="stop3310"/></linearGradient><radialGradient inkscape:collect="always" xlink:href="#linearGradient3267" id="radialGradient2744" cx="229.42223" cy="165.49092" fx="229.42223" fy="165.49092" r="214.71249" gradientTransform="matrix(1.0366665,-0.4245674,0.5247482,1.2812781,-76.854038,51.659165)" gradientUnits="userSpaceOnUse"/><radialGradient inkscape:collect="always" xlink:href="#linearGradient3302" id="radialGradient2746" cx="219.03064" cy="179.07094" fx="219.03064" fy="179.07094" r="163.20354" gradientTransform="matrix(0.9749047,0,0,1.2010572,-0.1091145,-49.282104)" gradientUnits="userSpaceOnUse"/><radialGradient inkscape:collect="always" xlink:href="#linearGradient2751" id="radialGradient2749" cx="124.24128" cy="233.71875" fx="124.24128" fy="233.71875" r="191.23438" gradientTransform="matrix(0.9748035,1.4043051e-2,-4.7669211e-3,0.3308976,1.017571,152.34579)" gradientUnits="userSpaceOnUse"/><radialGradient inkscape:collect="always" xlink:href="#linearGradient2763" id="radialGradient2761" cx="361.73175" cy="220.31578" fx="361.73175" fy="220.31578" r="50.98447" gradientTransform="matrix(1.3480374,0.640155,-1.4585899,3.0714964,217.24436,-706.16162)" gradientUnits="userSpaceOnUse"/><radialGradient inkscape:collect="always" xlink:href="#linearGradient2763" id="radialGradient2781" gradientUnits="userSpaceOnUse" gradientTransform="matrix(1.3480374,0.640155,-1.4585899,3.0714964,217.24436,-706.16162)" cx="397.10123" cy="248.53876" fx="397.10123" fy="248.53876" r="50.98447"/><linearGradient inkscape:collect="always" xlink:href="#linearGradient2970" id="linearGradient4294" gradientUnits="userSpaceOnUse" gradientTransform="matrix(0.6205484,0,0,0.6205484,-279.7408,41.891114)" x1="350.38974" y1="616.89941" x2="350.38974" y2="314.62296"/><radialGradient inkscape:collect="always" xlink:href="#linearGradient2970" id="radialGradient4303" gradientUnits="userSpaceOnUse" gradientTransform="matrix(-2.1833415,5.2353276,-2.9242444,-1.2194941,-87.985563,779.2524)" cx="-110.42792" cy="90.12397" fx="-110.42792" fy="90.12397" r="209.32422"/></defs><sodipodi:namedview inkscape:window-height="750" inkscape:window-width="1280" inkscape:pageshadow="2" inkscape:pageopacity="0.0" guidetolerance="10.0" gridtolerance="10.0" objecttolerance="10.0" borderopacity="1.0" bordercolor="#666666" pagecolor="#ffffff" id="base" showgrid="false" inkscape:zoom="1.240877" inkscape:cx="89.749474" inkscape:cy="218.79688" inkscape:window-x="-8" inkscape:window-y="-8" inkscape:current-layer="g7"/>
<g id="g3" transform="translate(4.348,2.8125)">
	<g id="g5">
		<g enable-background="new    " id="g7">
			<path style="fill:#e4cc61;fill-opacity:1" d="M 262.81049,0.83205675 C 167.76118,0.83205675 83.576456,69.022247 57.379795,156.39029 L 14.179332,156.39029 L -2.2417184,190.93847 L 9.4266719,202.78966 L 49.306366,202.78966 C 49.220725,204.60491 49.148718,206.42659 49.093105,208.24303 C 48.916648,214.00666 48.736777,219.75447 49.519626,225.51712 L 12.077194,225.51712 L -4.3438566,260.0653 L 7.3245339,271.91649 L 57.471192,271.91649 C 67.190903,303.55063 84.530911,332.07656 107.3132,355.20991 C 107.41389,355.31215 107.51694,355.41252 107.61785,355.51456 C 108.15421,356.06479 108.69345,356.61221 109.23254,357.15972 L 118.98159,367.06109 C 155.55416,404.19911 206.14173,427.44424 261.77465,427.44425 C 311.60788,427.44425 358.97266,408.74632 396.18963,377.93737 C 398.05268,376.39507 399.89353,374.81792 401.70394,373.21518 L 403.22723,323.28178 L 391.55884,311.43059 C 358.57976,353.66834 307.3378,381.04487 251.17257,381.04488 C 207.2747,381.04488 167.50136,364.41061 137.7485,337.08277 C 136.97602,336.2162 136.18747,335.34546 135.4331,334.46272 C 125.73865,323.1197 117.54628,310.44349 111.15188,296.74609 C 107.43945,288.7938 104.33145,280.50344 101.89029,271.91649 L 335.68461,271.91649 L 352.10566,237.36831 L 340.43727,225.51712 L 95.187818,225.51712 C 95.213398,223.70196 95.254068,221.8801 95.309678,220.06375 C 95.377928,217.84681 95.465418,215.23284 95.644808,212.47777 C 95.853428,209.27326 96.192208,205.88887 96.802498,202.78966 L 368.52671,202.78966 L 384.9173,168.24147 L 373.24891,156.39029 L 109.62859,156.39029 C 111.19858,152.71407 112.90295,149.09896 114.71638,145.54447 C 118.01351,139.08183 121.69329,132.81539 125.74499,126.80802 C 130.16228,120.25861 135.01146,113.99412 140.24669,108.07157 C 146.52215,100.97134 153.33918,94.35734 160.65876,88.299285 C 191.42578,62.832825 230.78195,47.261891 273.41258,47.261892 C 319.8867,47.261892 357.38325,63.425319 386.04453,89.853039 C 390.21914,94.516208 394.16786,99.417736 397.89572,104.53754 L 409.56411,116.38873 L 425.98516,82.297528 C 423.13746,79.016974 420.16132,75.85024 417.11962,72.761742 L 407.82756,63.347818 C 371.06556,24.774598 319.86326,0.83205665 262.81049,0.83205675 z M 110.39024,304.63673 C 103.02696,293.14716 117.17814,315.0085 110.39024,304.63673 z" id="polygon2565" sodipodi:nodetypes="ccccccscccccscccsscccscsscccccsscccccssscsccccccccc"/><path style="fill:url(#radialGradient2749)" d="M -2.2417184,190.93847 L 9.4266719,202.78966 L 62.254318,202.78966 L 50.585928,190.93847 L -2.2417184,190.93847 z M 85.134112,190.93847 L 96.802498,202.78966 L 368.52671,202.78966 L 356.85832,190.93847 L 85.134112,190.93847 z M -4.3438566,260.0653 L 7.3245339,271.91649 L 65.879745,271.91649 L 54.211355,260.0653 L -4.3438566,260.0653 z M 90.221896,260.0653 L 101.89029,271.91649 L 335.68461,271.91649 L 324.01622,260.0653 L 90.221896,260.0653 z" id="polygon11"/>
			<path style="fill:url(#radialGradient2746)" d="M 261.74419,35.410707 C 219.11453,35.410707 179.75836,50.982611 148.99037,76.4481 C 141.67176,82.506158 134.85376,89.120154 128.5783,96.220385 C 123.34404,102.14294 118.49486,108.4084 114.0766,114.95684 C 110.02587,120.9642 106.34512,127.23065 103.04799,133.69329 C 99.822998,140.01457 96.959708,146.53011 94.517568,153.22185 C 94.134432,154.27182 93.753001,155.33154 93.390336,156.39029 L 105.05873,168.24147 C 105.42237,167.18272 105.80282,166.12301 106.18596,165.07303 C 108.62907,158.38129 111.49139,151.86574 114.71638,145.54447 C 118.01351,139.08183 121.69329,132.81539 125.74499,126.80802 C 130.16228,120.25861 135.01146,113.99412 140.24669,108.07157 C 146.52215,100.97134 153.33918,94.35734 160.65876,88.299285 C 191.42578,62.832825 230.78195,47.261891 273.41258,47.261892 C 323.15806,47.261892 362.60343,65.775816 391.95489,95.580604 L 380.2865,83.729419 C 350.93407,53.924634 311.48968,35.411683 261.74419,35.410707 z M 85.134112,190.93847 C 84.522847,194.03769 84.186017,197.42208 83.976413,200.62659 C 83.797031,203.38264 83.709531,206.02512 83.64129,208.24303 C 83.463857,214.00666 83.284966,219.75447 84.06781,225.51712 L 95.736198,237.36831 C 94.953348,231.60467 95.133218,225.82738 95.309678,220.06375 C 95.377928,217.84681 95.465418,215.23284 95.644808,212.47777 C 95.853428,209.27326 96.192208,205.88887 96.802498,202.78966 L 85.134112,190.93847 z M 90.221896,260.0653 C 92.664032,268.65129 95.771058,276.94262 99.483488,284.89491 C 105.87887,298.59232 114.07026,311.26754 123.76471,322.61153 C 126.31409,325.59377 128.96412,328.49922 131.71628,331.29428 L 141.34346,341.04332 C 139.31757,338.90743 137.34513,336.70012 135.4331,334.46272 C 125.73865,323.1197 117.54628,310.44349 111.15188,296.74609 C 107.43945,288.7938 104.33145,280.50344 101.89029,271.91649 L 90.221896,260.0653 z M 107.3132,355.20991 L 118.98159,367.06109 C 155.55416,404.19911 206.14173,427.44424 261.77465,427.44425 C 311.60788,427.44425 358.97266,408.74632 396.18963,377.93737 C 398.05268,376.39507 399.89353,374.81792 401.70394,373.21518 L 390.03555,361.36399 C 388.22418,362.96674 386.38428,364.5439 384.52124,366.08619 C 347.30426,396.89512 299.93852,415.59305 250.10626,415.59306 C 194.47333,415.59306 143.88674,392.34792 107.3132,355.20991 z" id="path23"/>
			
			
			
			<path d="M 405.46293,60.901295 L 417.13351,72.751261 C 420.17521,75.839759 423.12235,79.026723 425.97005,82.307277 L 414.29946,70.457311 C 411.45177,67.176757 408.50463,63.989793 405.46293,60.901295" id="path79" style="fill:#626700"/>
			<path style="fill:url(#radialGradient2761);fill-opacity:1" d="M 414.2863,70.446343 L 397.89572,104.53754 L 409.56411,116.38873 L 425.98516,82.297528 L 414.2863,70.446343 z" id="path2779"/><path style="fill:url(#radialGradient2761);fill-opacity:1" d="M 373.24891,156.39029 L 356.85832,190.93847 L 368.52671,202.78966 L 384.9173,168.24147 L 373.24891,156.39029 z" id="path2777"/><path style="fill:url(#radialGradient2761);fill-opacity:1" d="M 340.43727,225.51712 L 324.01622,260.0653 L 335.68461,271.91649 L 352.10566,237.36831 L 340.43727,225.51712 z" id="path2775"/><path style="fill:url(#radialGradient2781);fill-opacity:1" d="M 391.55884,311.43059 L 390.03555,361.36399 L 401.70394,373.21518 L 403.22723,323.28178 L 391.55884,311.43059 z" id="polygon83"/>
			
			
			
			
			
			
			
		<path style="fill:url(#radialGradient4303);fill-opacity:1;opacity:1" id="path4301" d="M 262.81457,0.84682461 C 323.30058,0.84682461 377.20013,27.727871 414.30013,70.456968 L 397.89346,104.53672 C 367.48618,62.775694 322.24183,35.41012 261.75582,35.41012 C 183.98865,35.41012 117.11994,87.25555 93.400497,156.38214 L 373.26054,156.38214 L 356.84705,190.94543 L 85.136237,190.94543 C 84.000467,196.70907 83.794767,203.43104 83.647557,208.22757 C 83.471097,213.9912 83.294637,219.74607 84.077487,225.50873 L 340.42575,225.50873 L 324.00348,260.07202 L 90.225237,260.07202 C 110.15619,330.15889 174.36439,381.04404 251.17226,381.04404 C 307.33749,381.04404 358.57848,353.67944 391.55755,311.4417 L 390.0289,361.35974 C 352.03492,394.96471 302.44347,415.60734 250.11448,415.60734 C 155.54873,415.60734 75.518797,348.39936 54.219083,260.07202 L -4.3483154,260.07202 L 12.072979,225.50873 L 49.514193,225.50873 C 48.731345,219.74607 48.907802,213.9912 49.08426,208.22757 C 49.260718,202.46393 49.437176,196.70907 50.572939,190.94543 L -2.2317974,190.94543 L 14.189497,156.38214 L 57.393372,156.38214 C 83.590037,69.014109 167.76526,0.84682461 262.81457,0.84682461 z"/></g>
	</g>
</g>
</svg>